<svg xmlns="http://www.w3.org/2000/svg" viewBox="0 0 266.02 212.66"><defs><style>.cls-1{fill:#7ecef5;}.cls-2{fill:#c8e4f4;}.cls-3{fill:#09a7df;}.cls-4{fill:#ed8d93;}.cls-5{fill:#e86a72;}.cls-6{fill:#e54253;}.cls-7{fill:#fff;opacity:0.2;}</style></defs><title>Element 19</title><g id="Ebene_2" data-name="Ebene 2"><g id="Ebene_1-2" data-name="Ebene 1"><polyline class="cls-1" points="114.88 31.37 134.28 42.57 134.28 64.97 114.88 53.77 114.86 53.77 114.86 31.37"/><polyline class="cls-2" points="153.68 31.37 134.28 42.57 134.28 64.97 153.68 53.77 153.68 53.77 153.68 31.37"/><polygon class="cls-3" points="114.88 31.37 134.28 20.17 153.68 31.37 134.28 42.57 114.88 31.37"/><polyline class="cls-1" points="114.88 31.37 134.28 42.57 134.28 64.97 114.88 53.77 114.86 53.77 114.86 31.37"/><polyline class="cls-2" points="153.68 31.37 134.28 42.57 134.28 64.97 153.68 53.77 153.68 53.77 153.68 31.37"/><polygon class="cls-3" points="114.88 31.37 134.28 20.17 153.68 31.37 134.28 42.57 114.88 31.37"/><polyline class="cls-1" points="84.72 46.03 104.12 57.23 104.12 79.64 84.72 68.44 84.7 68.44 84.7 46.03"/><polyline class="cls-2" points="123.52 46.03 104.12 57.23 104.12 79.64 123.52 68.44 123.52 68.44 123.52 46.03"/><polygon class="cls-3" points="84.72 46.03 104.12 34.83 123.52 46.03 104.12 57.23 84.72 46.03"/><polyline class="cls-4" points="84.72 46.03 104.12 57.23 104.12 79.64 84.72 68.44 84.7 68.44 84.7 46.03"/><polyline class="cls-5" points="123.52 46.03 104.12 57.23 104.12 79.64 123.52 68.44 123.52 68.44 123.52 46.03"/><polygon class="cls-6" points="84.72 46.03 104.12 34.83 123.52 46.03 104.12 57.23 84.72 46.03"/><polyline class="cls-1" points="139.95 46.68 159.35 57.88 159.35 80.29 139.95 69.08 139.94 69.08 139.94 46.68"/><polyline class="cls-2" points="178.76 46.68 159.35 57.88 159.35 80.29 178.76 69.08 178.75 69.08 178.75 46.68"/><polygon class="cls-3" points="139.95 46.68 159.35 35.48 178.76 46.68 159.35 57.88 139.95 46.68"/><polyline class="cls-4" points="139.95 46.68 159.35 57.88 159.35 80.29 139.95 69.08 139.94 69.08 139.94 46.68"/><polyline class="cls-5" points="178.76 46.68 159.35 57.88 159.35 80.29 178.76 69.08 178.75 69.08 178.75 46.68"/><polygon class="cls-6" points="139.95 46.68 159.35 35.48 178.76 46.68 159.35 57.88 139.95 46.68"/><polyline class="cls-1" points="112.51 62.47 131.91 73.67 131.91 96.07 112.51 84.87 112.49 84.87 112.49 62.47"/><polyline class="cls-2" points="151.31 62.47 131.91 73.67 131.91 96.07 151.31 84.87 151.3 84.87 151.3 62.47"/><polygon class="cls-3" points="112.51 62.47 131.91 51.26 151.31 62.47 131.91 73.67 112.51 62.47"/><polyline class="cls-4" points="112.51 62.47 131.91 73.67 131.91 96.07 112.51 84.87 112.49 84.87 112.49 62.47"/><polyline class="cls-5" points="151.31 62.47 131.91 73.67 131.91 96.07 151.31 84.87 151.3 84.87 151.3 62.47"/><polygon class="cls-6" points="112.51 62.47 131.91 51.26 151.31 62.47 131.91 73.67 112.51 62.47"/><polyline class="cls-1" points="170.22 131.53 189.62 142.73 189.62 165.14 170.22 153.94 170.2 153.94 170.2 131.53"/><polyline class="cls-2" points="209.02 131.53 189.62 142.73 189.62 165.14 209.02 153.94 209.01 153.94 209.01 131.53"/><polygon class="cls-3" points="170.22 131.53 189.62 120.33 209.02 131.53 189.62 142.73 170.22 131.53"/><polyline class="cls-1" points="170.22 131.53 189.62 142.73 189.62 165.14 170.22 153.94 170.2 153.94 170.2 131.53"/><polyline class="cls-2" points="209.02 131.53 189.62 142.73 189.62 165.14 209.02 153.94 209.01 153.94 209.01 131.53"/><polygon class="cls-3" points="170.22 131.53 189.62 120.33 209.02 131.53 189.62 142.73 170.22 131.53"/><polyline class="cls-1" points="170.22 131.53 189.62 142.73 189.62 165.14 170.22 153.94 170.2 153.94 170.2 131.53"/><polyline class="cls-2" points="209.02 131.53 189.62 142.73 189.62 165.14 209.02 153.94 209.01 153.94 209.01 131.53"/><polygon class="cls-3" points="170.22 131.53 189.62 120.33 209.02 131.53 189.62 142.73 170.22 131.53"/><polyline class="cls-1" points="170.22 131.53 189.62 142.73 189.62 165.14 170.22 153.94 170.2 153.94 170.2 131.53"/><polyline class="cls-2" points="209.02 131.53 189.62 142.73 189.62 165.14 209.02 153.94 209.01 153.94 209.01 131.53"/><polygon class="cls-3" points="170.22 131.53 189.62 120.33 209.02 131.53 189.62 142.73 170.22 131.53"/><polyline class="cls-1" points="170.22 97.93 189.62 109.13 189.62 131.53 170.22 120.33 170.21 120.33 170.21 97.93"/><polyline class="cls-2" points="209.03 97.93 189.62 109.13 189.62 131.53 209.03 120.33 209.02 120.33 209.02 97.93"/><polygon class="cls-3" points="170.22 97.93 189.62 86.73 209.03 97.93 189.62 109.13 170.22 97.93"/><polyline class="cls-1" points="170.22 97.93 189.62 109.13 189.62 131.53 170.22 120.33 170.21 120.33 170.21 97.93"/><polyline class="cls-2" points="209.03 97.93 189.62 109.13 189.62 131.53 209.03 120.33 209.02 120.33 209.02 97.93"/><polygon class="cls-3" points="170.22 97.93 189.62 86.73 209.03 97.93 189.62 109.13 170.22 97.93"/><polyline class="cls-1" points="170.24 65.08 189.64 76.29 189.64 98.69 170.24 87.49 170.22 87.49 170.22 65.08"/><polyline class="cls-2" points="209.04 65.08 189.64 76.29 189.64 98.69 209.04 87.49 209.04 87.49 209.04 65.08"/><polygon class="cls-3" points="170.24 65.08 189.64 53.88 209.04 65.08 189.64 76.29 170.24 65.08"/><polyline class="cls-1" points="170.24 65.08 189.64 76.29 189.64 98.69 170.24 87.49 170.22 87.49 170.22 65.08"/><polyline class="cls-2" points="209.04 65.08 189.64 76.29 189.64 98.69 209.04 87.49 209.04 87.49 209.04 65.08"/><polygon class="cls-3" points="170.24 65.08 189.64 53.88 209.04 65.08 189.64 76.29 170.24 65.08"/><polyline class="cls-1" points="170.22 131.53 189.62 142.73 189.62 165.14 170.22 153.94 170.2 153.94 170.2 131.53"/><polyline class="cls-2" points="209.02 131.53 189.62 142.73 189.62 165.14 209.02 153.94 209.01 153.94 209.01 131.53"/><polygon class="cls-3" points="170.22 131.53 189.62 120.33 209.02 131.53 189.62 142.73 170.22 131.53"/><polyline class="cls-1" points="170.22 131.53 189.62 142.73 189.62 165.14 170.22 153.94 170.2 153.94 170.2 131.53"/><polyline class="cls-2" points="209.02 131.53 189.62 142.73 189.62 165.14 209.02 153.94 209.01 153.94 209.01 131.53"/><polygon class="cls-3" points="170.22 131.53 189.62 120.33 209.02 131.53 189.62 142.73 170.22 131.53"/><polyline class="cls-1" points="170.22 131.53 189.62 142.73 189.62 165.14 170.22 153.94 170.2 153.94 170.2 131.53"/><polyline class="cls-2" points="209.02 131.53 189.62 142.73 189.62 165.14 209.02 153.94 209.01 153.94 209.01 131.53"/><polygon class="cls-3" points="170.22 131.53 189.62 120.33 209.02 131.53 189.62 142.73 170.22 131.53"/><polyline class="cls-1" points="170.22 131.53 189.62 142.73 189.62 165.14 170.22 153.94 170.2 153.94 170.2 131.53"/><polyline class="cls-2" points="209.02 131.53 189.62 142.73 189.62 165.14 209.02 153.94 209.01 153.94 209.01 131.53"/><polygon class="cls-3" points="170.22 131.53 189.62 120.33 209.02 131.53 189.62 142.73 170.22 131.53"/><polyline class="cls-1" points="170.22 97.93 189.62 109.13 189.62 131.53 170.22 120.33 170.21 120.33 170.21 97.93"/><polyline class="cls-2" points="209.03 97.93 189.62 109.13 189.62 131.53 209.03 120.33 209.02 120.33 209.02 97.93"/><polygon class="cls-3" points="170.22 97.93 189.62 86.73 209.03 97.93 189.62 109.13 170.22 97.93"/><polyline class="cls-1" points="170.22 97.93 189.62 109.13 189.62 131.53 170.22 120.33 170.21 120.33 170.21 97.93"/><polyline class="cls-2" points="209.03 97.93 189.62 109.13 189.62 131.53 209.03 120.33 209.02 120.33 209.02 97.93"/><polygon class="cls-3" points="170.22 97.93 189.62 86.73 209.03 97.93 189.62 109.13 170.22 97.93"/><polyline class="cls-1" points="170.24 65.08 189.64 76.29 189.64 98.69 170.24 87.49 170.22 87.49 170.22 65.08"/><polyline class="cls-2" points="209.04 65.08 189.64 76.29 189.64 98.69 209.04 87.49 209.04 87.49 209.04 65.08"/><polygon class="cls-3" points="170.24 65.08 189.64 53.88 209.04 65.08 189.64 76.29 170.24 65.08"/><polyline class="cls-1" points="170.24 65.08 189.64 76.29 189.64 98.69 170.24 87.49 170.22 87.49 170.22 65.08"/><polyline class="cls-2" points="209.04 65.08 189.64 76.29 189.64 98.69 209.04 87.49 209.04 87.49 209.04 65.08"/><polygon class="cls-3" points="170.24 65.08 189.64 53.88 209.04 65.08 189.64 76.29 170.24 65.08"/><polyline class="cls-1" points="141.95 147.31 161.35 158.51 161.35 180.92 141.95 169.72 141.93 169.72 141.93 147.31"/><polyline class="cls-2" points="180.75 147.31 161.35 158.51 161.35 180.92 180.75 169.72 180.74 169.72 180.74 147.31"/><polygon class="cls-3" points="141.95 147.31 161.35 136.11 180.75 147.31 161.35 158.51 141.95 147.31"/><polyline class="cls-4" points="141.95 147.31 161.35 158.51 161.35 180.92 141.95 169.72 141.93 169.72 141.93 147.31"/><polyline class="cls-5" points="180.75 147.31 161.35 158.51 161.35 180.92 180.75 169.72 180.74 169.72 180.74 147.31"/><polygon class="cls-6" points="141.95 147.31 161.35 136.11 180.75 147.31 161.35 158.51 141.95 147.31"/><polyline class="cls-1" points="141.95 113.71 161.35 124.91 161.35 147.31 141.95 136.11 141.94 136.11 141.94 113.71"/><polyline class="cls-2" points="180.76 113.71 161.35 124.91 161.35 147.31 180.76 136.11 180.75 136.11 180.75 113.71"/><polygon class="cls-3" points="141.95 113.71 161.35 102.51 180.76 113.71 161.35 124.91 141.95 113.71"/><polyline class="cls-4" points="141.95 113.71 161.35 124.91 161.35 147.31 141.95 136.11 141.94 136.11 141.94 113.71"/><polyline class="cls-5" points="180.76 113.71 161.35 124.91 161.35 147.31 180.76 136.11 180.75 136.11 180.75 113.71"/><polygon class="cls-6" points="141.95 113.71 161.35 102.51 180.76 113.71 161.35 124.91 141.95 113.71"/><polyline class="cls-1" points="141.95 80.11 161.35 91.31 161.35 113.71 141.95 102.51 141.94 102.51 141.94 80.11"/><polyline class="cls-2" points="180.76 80.11 161.35 91.31 161.35 113.71 180.76 102.51 180.75 102.51 180.75 80.11"/><polygon class="cls-3" points="141.95 80.11 161.35 68.91 180.76 80.11 161.35 91.31 141.95 80.11"/><polyline class="cls-4" points="141.95 80.11 161.35 91.31 161.35 113.71 141.95 102.51 141.94 102.51 141.94 80.11"/><polyline class="cls-5" points="180.76 80.11 161.35 91.31 161.35 113.71 180.76 102.51 180.75 102.51 180.75 80.11"/><polygon class="cls-6" points="141.95 80.11 161.35 68.91 180.76 80.11 161.35 91.31 141.95 80.11"/><polyline class="cls-1" points="53.57 129.31 72.97 140.51 72.97 162.91 53.57 151.71 53.56 151.71 53.56 129.31"/><polyline class="cls-2" points="92.38 129.31 72.97 140.51 72.97 162.91 92.38 151.71 92.37 151.71 92.37 129.31"/><polygon class="cls-3" points="53.57 129.31 72.97 118.11 92.38 129.31 72.97 140.51 53.57 129.31"/><polyline class="cls-1" points="53.57 129.31 72.97 140.51 72.97 162.91 53.57 151.71 53.56 151.71 53.56 129.31"/><polyline class="cls-2" points="92.38 129.31 72.97 140.51 72.97 162.91 92.38 151.71 92.37 151.71 92.37 129.31"/><polygon class="cls-3" points="53.57 129.31 72.97 118.11 92.38 129.31 72.97 140.51 53.57 129.31"/><polyline class="cls-1" points="53.57 129.31 72.97 140.51 72.97 162.91 53.57 151.71 53.56 151.71 53.56 129.31"/><polyline class="cls-2" points="92.38 129.31 72.97 140.51 72.97 162.91 92.38 151.71 92.37 151.71 92.37 129.31"/><polygon class="cls-3" points="53.57 129.31 72.97 118.11 92.38 129.31 72.97 140.51 53.57 129.31"/><polyline class="cls-1" points="53.57 129.31 72.97 140.51 72.97 162.91 53.57 151.71 53.56 151.71 53.56 129.31"/><polyline class="cls-2" points="92.38 129.31 72.97 140.51 72.97 162.91 92.38 151.71 92.37 151.71 92.37 129.31"/><polygon class="cls-3" points="53.57 129.31 72.97 118.11 92.38 129.31 72.97 140.51 53.57 129.31"/><polyline class="cls-1" points="53.58 95.71 72.98 106.91 72.98 129.31 53.58 118.11 53.57 118.11 53.57 95.71"/><polyline class="cls-2" points="92.38 95.71 72.98 106.91 72.98 129.31 92.38 118.11 92.38 118.11 92.38 95.71"/><polygon class="cls-3" points="53.58 95.71 72.98 84.51 92.38 95.71 72.98 106.91 53.58 95.71"/><polyline class="cls-1" points="53.58 95.71 72.98 106.91 72.98 129.31 53.58 118.11 53.57 118.11 53.57 95.71"/><polyline class="cls-2" points="92.38 95.71 72.98 106.91 72.98 129.31 92.38 118.11 92.38 118.11 92.38 95.71"/><polygon class="cls-3" points="53.58 95.71 72.98 84.51 92.38 95.71 72.98 106.91 53.58 95.71"/><polyline class="cls-1" points="53.6 62.86 73 74.07 73 96.47 53.6 85.27 53.58 85.27 53.58 62.86"/><polyline class="cls-2" points="92.4 62.86 73 74.07 73 96.47 92.4 85.27 92.4 85.27 92.4 62.86"/><polygon class="cls-3" points="53.6 62.86 73 51.66 92.4 62.86 73 74.07 53.6 62.86"/><polyline class="cls-1" points="53.6 62.86 73 74.07 73 96.47 53.6 85.27 53.58 85.27 53.58 62.86"/><polyline class="cls-2" points="92.4 62.86 73 74.07 73 96.47 92.4 85.27 92.4 85.27 92.4 62.86"/><polygon class="cls-3" points="53.6 62.86 73 51.66 92.4 62.86 73 74.07 53.6 62.86"/><polyline class="cls-1" points="53.57 129.31 72.97 140.51 72.97 162.91 53.57 151.71 53.56 151.71 53.56 129.31"/><polyline class="cls-2" points="92.38 129.31 72.97 140.51 72.97 162.91 92.38 151.71 92.37 151.71 92.37 129.31"/><polygon class="cls-3" points="53.57 129.31 72.97 118.11 92.38 129.31 72.97 140.51 53.57 129.31"/><polyline class="cls-1" points="53.57 129.31 72.97 140.51 72.97 162.91 53.57 151.71 53.56 151.71 53.56 129.31"/><polyline class="cls-2" points="92.38 129.31 72.97 140.51 72.97 162.91 92.38 151.71 92.37 151.71 92.37 129.31"/><polygon class="cls-3" points="53.57 129.31 72.97 118.11 92.38 129.31 72.97 140.51 53.57 129.31"/><polyline class="cls-1" points="53.57 129.31 72.97 140.51 72.97 162.91 53.57 151.71 53.56 151.71 53.56 129.31"/><polyline class="cls-2" points="92.38 129.31 72.97 140.51 72.97 162.91 92.38 151.71 92.37 151.71 92.37 129.31"/><polygon class="cls-3" points="53.57 129.31 72.97 118.11 92.38 129.31 72.97 140.51 53.57 129.31"/><polyline class="cls-1" points="53.57 129.31 72.97 140.51 72.97 162.91 53.57 151.71 53.56 151.71 53.56 129.31"/><polyline class="cls-2" points="92.38 129.31 72.97 140.51 72.97 162.91 92.38 151.71 92.37 151.71 92.37 129.31"/><polygon class="cls-3" points="53.57 129.31 72.97 118.11 92.38 129.31 72.97 140.51 53.57 129.31"/><polyline class="cls-1" points="53.58 95.71 72.98 106.91 72.98 129.31 53.58 118.11 53.57 118.11 53.57 95.71"/><polyline class="cls-2" points="92.38 95.71 72.98 106.91 72.98 129.31 92.38 118.11 92.38 118.11 92.38 95.71"/><polygon class="cls-3" points="53.58 95.71 72.98 84.51 92.38 95.71 72.98 106.91 53.58 95.71"/><polyline class="cls-1" points="53.58 95.71 72.98 106.91 72.98 129.31 53.58 118.11 53.57 118.11 53.57 95.71"/><polyline class="cls-2" points="92.38 95.71 72.98 106.91 72.98 129.31 92.38 118.11 92.38 118.11 92.38 95.71"/><polygon class="cls-3" points="53.58 95.71 72.98 84.51 92.38 95.71 72.98 106.91 53.58 95.71"/><polyline class="cls-1" points="53.6 62.86 73 74.07 73 96.47 53.6 85.27 53.58 85.27 53.58 62.86"/><polyline class="cls-2" points="92.4 62.86 73 74.07 73 96.47 92.4 85.27 92.4 85.27 92.4 62.86"/><polygon class="cls-3" points="53.6 62.86 73 51.66 92.4 62.86 73 74.07 53.6 62.86"/><polyline class="cls-1" points="53.6 62.86 73 74.07 73 96.47 53.6 85.27 53.58 85.27 53.58 62.86"/><polyline class="cls-2" points="92.4 62.86 73 74.07 73 96.47 92.4 85.27 92.4 85.27 92.4 62.86"/><polygon class="cls-3" points="53.6 62.86 73 51.66 92.4 62.86 73 74.07 53.6 62.86"/><polyline class="cls-1" points="81.7 146.31 101.1 157.51 101.1 179.92 81.7 168.72 81.69 168.72 81.69 146.31"/><polyline class="cls-2" points="120.5 146.31 101.1 157.51 101.1 179.92 120.5 168.72 120.5 168.72 120.5 146.31"/><polygon class="cls-3" points="81.7 146.31 101.1 135.11 120.5 146.31 101.1 157.51 81.7 146.31"/><polyline class="cls-4" points="81.7 146.31 101.1 157.51 101.1 179.92 81.7 168.72 81.69 168.72 81.69 146.31"/><polyline class="cls-5" points="120.5 146.31 101.1 157.51 101.1 179.92 120.5 168.72 120.5 168.72 120.5 146.31"/><polygon class="cls-6" points="81.7 146.31 101.1 135.11 120.5 146.31 101.1 157.51 81.7 146.31"/><polyline class="cls-1" points="81.71 112.71 101.11 123.91 101.11 146.31 81.71 135.11 81.69 135.11 81.69 112.71"/><polyline class="cls-2" points="120.51 112.71 101.11 123.91 101.11 146.31 120.51 135.11 120.51 135.11 120.51 112.71"/><polygon class="cls-3" points="81.71 112.71 101.11 101.51 120.51 112.71 101.11 123.91 81.71 112.71"/><polyline class="cls-4" points="81.71 112.71 101.11 123.91 101.11 146.31 81.71 135.11 81.69 135.11 81.69 112.71"/><polyline class="cls-5" points="120.51 112.71 101.11 123.91 101.11 146.31 120.51 135.11 120.51 135.11 120.51 112.71"/><polygon class="cls-6" points="81.71 112.71 101.11 101.51 120.51 112.71 101.11 123.91 81.71 112.71"/><polyline class="cls-1" points="81.71 79.11 101.11 90.31 101.11 112.71 81.71 101.51 81.69 101.51 81.69 79.11"/><polyline class="cls-2" points="120.51 79.11 101.11 90.31 101.11 112.71 120.51 101.51 120.51 101.51 120.51 79.11"/><polygon class="cls-3" points="81.71 79.11 101.11 67.91 120.51 79.11 101.11 90.31 81.71 79.11"/><polyline class="cls-4" points="81.71 79.11 101.11 90.31 101.11 112.71 81.71 101.51 81.69 101.51 81.69 79.11"/><polyline class="cls-5" points="120.51 79.11 101.11 90.31 101.11 112.71 120.51 101.51 120.51 101.51 120.51 79.11"/><polygon class="cls-6" points="81.71 79.11 101.11 67.91 120.51 79.11 101.11 90.31 81.71 79.11"/><polyline class="cls-1" points="110.8 164.12 130.2 175.32 130.2 197.72 110.8 186.52 110.78 186.52 110.78 164.12"/><polyline class="cls-2" points="149.6 164.12 130.2 175.32 130.2 197.72 149.6 186.52 149.59 186.52 149.59 164.12"/><polygon class="cls-3" points="110.8 164.12 130.2 152.91 149.6 164.12 130.2 175.32 110.8 164.12"/><polyline class="cls-1" points="110.8 164.12 130.2 175.32 130.2 197.72 110.8 186.52 110.78 186.52 110.78 164.12"/><polyline class="cls-2" points="149.6 164.12 130.2 175.32 130.2 197.72 149.6 186.52 149.59 186.52 149.59 164.12"/><polygon class="cls-3" points="110.8 164.12 130.2 152.91 149.6 164.12 130.2 175.32 110.8 164.12"/><polyline class="cls-1" points="110.8 164.12 130.2 175.32 130.2 197.72 110.8 186.52 110.78 186.52 110.78 164.12"/><polyline class="cls-2" points="149.6 164.12 130.2 175.32 130.2 197.72 149.6 186.52 149.59 186.52 149.59 164.12"/><polygon class="cls-3" points="110.8 164.12 130.2 152.91 149.6 164.12 130.2 175.32 110.8 164.12"/><polyline class="cls-1" points="110.8 164.12 130.2 175.32 130.2 197.72 110.8 186.52 110.78 186.52 110.78 164.12"/><polyline class="cls-2" points="149.6 164.12 130.2 175.32 130.2 197.72 149.6 186.52 149.59 186.52 149.59 164.12"/><polygon class="cls-3" points="110.8 164.12 130.2 152.91 149.6 164.12 130.2 175.32 110.8 164.12"/><polyline class="cls-1" points="110.8 130.51 130.21 141.71 130.21 164.12 110.8 152.91 110.79 152.91 110.79 130.51"/><polyline class="cls-2" points="149.61 130.51 130.21 141.71 130.21 164.12 149.61 152.91 149.6 152.91 149.6 130.51"/><polygon class="cls-3" points="110.8 130.51 130.21 119.31 149.61 130.51 130.21 141.71 110.8 130.51"/><polyline class="cls-1" points="110.8 130.51 130.21 141.71 130.21 164.12 110.8 152.91 110.79 152.91 110.79 130.51"/><polyline class="cls-2" points="149.61 130.51 130.21 141.71 130.21 164.12 149.61 152.91 149.6 152.91 149.6 130.51"/><polygon class="cls-3" points="110.8 130.51 130.21 119.31 149.61 130.51 130.21 141.71 110.8 130.51"/><polyline class="cls-1" points="110.82 97.67 130.22 108.87 130.22 131.27 110.82 120.07 110.8 120.07 110.8 97.67"/><polyline class="cls-2" points="149.62 97.67 130.22 108.87 130.22 131.27 149.62 120.07 149.62 120.07 149.62 97.67"/><polygon class="cls-3" points="110.82 97.67 130.22 86.47 149.62 97.67 130.22 108.87 110.82 97.67"/><polyline class="cls-1" points="110.82 97.67 130.22 108.87 130.22 131.27 110.82 120.07 110.8 120.07 110.8 97.67"/><polyline class="cls-2" points="149.62 97.67 130.22 108.87 130.22 131.27 149.62 120.07 149.62 120.07 149.62 97.67"/><polygon class="cls-3" points="110.82 97.67 130.22 86.47 149.62 97.67 130.22 108.87 110.82 97.67"/><polyline class="cls-1" points="110.8 164.12 130.2 175.32 130.2 197.72 110.8 186.52 110.78 186.52 110.78 164.12"/><polyline class="cls-2" points="149.6 164.12 130.2 175.32 130.2 197.72 149.6 186.52 149.59 186.52 149.59 164.12"/><polygon class="cls-3" points="110.8 164.12 130.2 152.91 149.6 164.12 130.2 175.32 110.8 164.12"/><polyline class="cls-1" points="110.8 164.12 130.2 175.32 130.2 197.72 110.8 186.52 110.78 186.52 110.78 164.12"/><polyline class="cls-2" points="149.6 164.12 130.2 175.32 130.2 197.72 149.6 186.52 149.59 186.52 149.59 164.12"/><polygon class="cls-3" points="110.8 164.12 130.2 152.91 149.6 164.12 130.2 175.32 110.8 164.12"/><polyline class="cls-1" points="110.8 164.12 130.2 175.32 130.2 197.72 110.8 186.52 110.78 186.52 110.78 164.12"/><polyline class="cls-2" points="149.6 164.12 130.2 175.32 130.2 197.72 149.6 186.52 149.59 186.52 149.59 164.12"/><polygon class="cls-3" points="110.8 164.12 130.2 152.91 149.6 164.12 130.2 175.32 110.8 164.12"/><polyline class="cls-1" points="110.8 164.12 130.2 175.32 130.2 197.72 110.8 186.52 110.78 186.52 110.78 164.12"/><polyline class="cls-2" points="149.6 164.12 130.2 175.32 130.2 197.72 149.6 186.52 149.59 186.52 149.59 164.12"/><polygon class="cls-3" points="110.8 164.12 130.2 152.91 149.6 164.12 130.2 175.32 110.8 164.12"/><polyline class="cls-1" points="110.8 130.51 130.21 141.71 130.21 164.12 110.8 152.91 110.79 152.91 110.79 130.51"/><polyline class="cls-2" points="149.61 130.51 130.21 141.71 130.21 164.12 149.61 152.91 149.6 152.91 149.6 130.51"/><polygon class="cls-3" points="110.8 130.51 130.21 119.31 149.61 130.51 130.21 141.71 110.8 130.51"/><polyline class="cls-1" points="110.8 130.51 130.21 141.71 130.21 164.12 110.8 152.91 110.79 152.91 110.79 130.51"/><polyline class="cls-2" points="149.61 130.51 130.21 141.71 130.21 164.12 149.61 152.91 149.6 152.91 149.6 130.51"/><polygon class="cls-3" points="110.8 130.51 130.21 119.31 149.61 130.51 130.21 141.71 110.8 130.51"/><polyline class="cls-1" points="110.82 97.67 130.22 108.87 130.22 131.27 110.82 120.07 110.8 120.07 110.8 97.67"/><polyline class="cls-2" points="149.62 97.67 130.22 108.87 130.22 131.27 149.62 120.07 149.62 120.07 149.62 97.67"/><polygon class="cls-3" points="110.82 97.67 130.22 86.47 149.62 97.67 130.22 108.87 110.82 97.67"/><polyline class="cls-1" points="110.82 97.67 130.22 108.87 130.22 131.27 110.82 120.07 110.8 120.07 110.8 97.67"/><polyline class="cls-2" points="149.62 97.67 130.22 108.87 130.22 131.27 149.62 120.07 149.62 120.07 149.62 97.67"/><polygon class="cls-3" points="110.82 97.67 130.22 86.47 149.62 97.67 130.22 108.87 110.82 97.67"/><rect class="cls-7" width="266.02" height="212.66"/></g></g></svg>