<svg xmlns="http://www.w3.org/2000/svg" viewBox="0 0 155.48 177.55"><defs><style>.cls-1{fill:#7ecef5;}.cls-2{fill:#c8e4f4;}.cls-3{fill:#09a7df;}.cls-4{fill:#ed8d93;}.cls-5{fill:#e86a72;}.cls-6{fill:#e54253;}</style></defs><title>Element 23</title><g id="Ebene_2" data-name="Ebene 2"><g id="Ebene_1-2" data-name="Ebene 1"><polyline class="cls-1" points="61.32 11.2 80.72 22.4 80.72 44.8 61.32 33.6 61.3 33.6 61.3 11.2"/><polyline class="cls-2" points="100.12 11.2 80.72 22.4 80.72 44.8 100.12 33.6 100.12 33.6 100.12 11.2"/><polygon class="cls-3" points="61.32 11.2 80.72 0 100.12 11.2 80.72 22.4 61.32 11.2"/><polyline class="cls-1" points="61.32 11.2 80.72 22.4 80.72 44.8 61.32 33.6 61.3 33.6 61.3 11.2"/><polyline class="cls-2" points="100.12 11.2 80.72 22.4 80.72 44.8 100.12 33.6 100.12 33.6 100.12 11.2"/><polygon class="cls-3" points="61.32 11.2 80.72 0 100.12 11.2 80.72 22.4 61.32 11.2"/><polyline class="cls-1" points="31.16 25.86 50.56 37.07 50.56 59.47 31.16 48.27 31.14 48.27 31.14 25.86"/><polyline class="cls-2" points="69.96 25.86 50.56 37.07 50.56 59.47 69.96 48.27 69.96 48.27 69.96 25.86"/><polygon class="cls-3" points="31.16 25.86 50.56 14.66 69.96 25.86 50.56 37.07 31.16 25.86"/><polyline class="cls-4" points="31.16 25.86 50.56 37.07 50.56 59.47 31.16 48.27 31.14 48.27 31.14 25.86"/><polyline class="cls-5" points="69.96 25.86 50.56 37.07 50.56 59.47 69.96 48.27 69.96 48.27 69.96 25.86"/><polygon class="cls-6" points="31.16 25.86 50.56 14.66 69.96 25.86 50.56 37.07 31.16 25.86"/><polyline class="cls-1" points="86.4 26.51 105.8 37.72 105.8 60.12 86.4 48.92 86.38 48.92 86.38 26.51"/><polyline class="cls-2" points="125.2 26.51 105.8 37.72 105.8 60.12 125.2 48.92 125.19 48.92 125.19 26.51"/><polygon class="cls-3" points="86.4 26.51 105.8 15.31 125.2 26.51 105.8 37.72 86.4 26.51"/><polyline class="cls-4" points="86.4 26.51 105.8 37.72 105.8 60.12 86.4 48.92 86.38 48.92 86.38 26.51"/><polyline class="cls-5" points="125.2 26.51 105.8 37.72 105.8 60.12 125.2 48.92 125.19 48.92 125.19 26.51"/><polygon class="cls-6" points="86.4 26.51 105.8 15.31 125.2 26.51 105.8 37.72 86.4 26.51"/><polyline class="cls-1" points="58.95 42.3 78.35 53.5 78.35 75.9 58.95 64.7 58.93 64.7 58.93 42.3"/><polyline class="cls-2" points="97.75 42.3 78.35 53.5 78.35 75.9 97.75 64.7 97.75 64.7 97.75 42.3"/><polygon class="cls-3" points="58.95 42.3 78.35 31.09 97.75 42.3 78.35 53.5 58.95 42.3"/><polyline class="cls-4" points="58.95 42.3 78.35 53.5 78.35 75.9 58.95 64.7 58.93 64.7 58.93 42.3"/><polyline class="cls-5" points="97.75 42.3 78.35 53.5 78.35 75.9 97.75 64.7 97.75 64.7 97.75 42.3"/><polygon class="cls-6" points="58.95 42.3 78.35 31.09 97.75 42.3 78.35 53.5 58.95 42.3"/><polyline class="cls-1" points="116.66 111.36 136.06 122.56 136.06 144.97 116.66 133.77 116.64 133.77 116.64 111.36"/><polyline class="cls-2" points="155.46 111.36 136.06 122.56 136.06 144.97 155.46 133.77 155.45 133.77 155.45 111.36"/><polygon class="cls-3" points="116.66 111.36 136.06 100.16 155.46 111.36 136.06 122.56 116.66 111.36"/><polyline class="cls-1" points="116.66 111.36 136.06 122.56 136.06 144.97 116.66 133.77 116.64 133.77 116.64 111.36"/><polyline class="cls-2" points="155.46 111.36 136.06 122.56 136.06 144.97 155.46 133.77 155.45 133.77 155.45 111.36"/><polygon class="cls-3" points="116.66 111.36 136.06 100.16 155.46 111.36 136.06 122.56 116.66 111.36"/><polyline class="cls-1" points="116.66 111.36 136.06 122.56 136.06 144.97 116.66 133.77 116.64 133.77 116.64 111.36"/><polyline class="cls-2" points="155.46 111.36 136.06 122.56 136.06 144.97 155.46 133.77 155.45 133.77 155.45 111.36"/><polygon class="cls-3" points="116.66 111.36 136.06 100.16 155.46 111.36 136.06 122.56 116.66 111.36"/><polyline class="cls-1" points="116.66 111.36 136.06 122.56 136.06 144.97 116.66 133.77 116.64 133.77 116.64 111.36"/><polyline class="cls-2" points="155.46 111.36 136.06 122.56 136.06 144.97 155.46 133.77 155.45 133.77 155.45 111.36"/><polygon class="cls-3" points="116.66 111.36 136.06 100.16 155.46 111.36 136.06 122.56 116.66 111.36"/><polyline class="cls-1" points="116.67 77.76 136.07 88.96 136.07 111.36 116.67 100.16 116.65 100.16 116.65 77.76"/><polyline class="cls-2" points="155.47 77.76 136.07 88.96 136.07 111.36 155.47 100.16 155.46 100.16 155.46 77.76"/><polygon class="cls-3" points="116.67 77.76 136.07 66.56 155.47 77.76 136.07 88.96 116.67 77.76"/><polyline class="cls-1" points="116.67 77.76 136.07 88.96 136.07 111.36 116.67 100.16 116.65 100.16 116.65 77.76"/><polyline class="cls-2" points="155.47 77.76 136.07 88.96 136.07 111.36 155.47 100.16 155.46 100.16 155.46 77.76"/><polygon class="cls-3" points="116.67 77.76 136.07 66.56 155.47 77.76 136.07 88.96 116.67 77.76"/><polyline class="cls-1" points="116.68 44.92 136.08 56.12 136.08 78.52 116.68 67.32 116.67 67.32 116.67 44.92"/><polyline class="cls-2" points="155.48 44.92 136.08 56.12 136.08 78.52 155.48 67.32 155.48 67.32 155.48 44.92"/><polygon class="cls-3" points="116.68 44.92 136.08 33.72 155.48 44.92 136.08 56.12 116.68 44.92"/><polyline class="cls-1" points="116.68 44.92 136.08 56.12 136.08 78.52 116.68 67.32 116.67 67.32 116.67 44.92"/><polyline class="cls-2" points="155.48 44.92 136.08 56.12 136.08 78.52 155.48 67.32 155.48 67.32 155.48 44.92"/><polygon class="cls-3" points="116.68 44.92 136.08 33.72 155.48 44.92 136.08 56.12 116.68 44.92"/><polyline class="cls-1" points="116.66 111.36 136.06 122.56 136.06 144.97 116.66 133.77 116.64 133.77 116.64 111.36"/><polyline class="cls-2" points="155.46 111.36 136.06 122.56 136.06 144.97 155.46 133.77 155.45 133.77 155.45 111.36"/><polygon class="cls-3" points="116.66 111.36 136.06 100.16 155.46 111.36 136.06 122.56 116.66 111.36"/><polyline class="cls-1" points="116.66 111.36 136.06 122.56 136.06 144.97 116.66 133.77 116.64 133.77 116.64 111.36"/><polyline class="cls-2" points="155.46 111.36 136.06 122.56 136.06 144.97 155.46 133.77 155.45 133.77 155.45 111.36"/><polygon class="cls-3" points="116.66 111.36 136.06 100.16 155.46 111.36 136.06 122.56 116.66 111.36"/><polyline class="cls-1" points="116.66 111.36 136.06 122.56 136.06 144.97 116.66 133.77 116.64 133.77 116.64 111.36"/><polyline class="cls-2" points="155.46 111.36 136.06 122.56 136.06 144.97 155.46 133.77 155.45 133.77 155.45 111.36"/><polygon class="cls-3" points="116.66 111.36 136.06 100.16 155.46 111.36 136.06 122.56 116.66 111.36"/><polyline class="cls-1" points="116.66 111.36 136.06 122.56 136.06 144.97 116.66 133.77 116.64 133.77 116.64 111.36"/><polyline class="cls-2" points="155.46 111.36 136.06 122.56 136.06 144.97 155.46 133.77 155.45 133.77 155.45 111.36"/><polygon class="cls-3" points="116.66 111.36 136.06 100.16 155.46 111.36 136.06 122.56 116.66 111.36"/><polyline class="cls-1" points="116.67 77.76 136.07 88.96 136.07 111.36 116.67 100.16 116.65 100.16 116.65 77.76"/><polyline class="cls-2" points="155.47 77.76 136.07 88.96 136.07 111.36 155.47 100.16 155.46 100.16 155.46 77.76"/><polygon class="cls-3" points="116.67 77.76 136.07 66.56 155.47 77.76 136.07 88.96 116.67 77.76"/><polyline class="cls-1" points="116.67 77.76 136.07 88.96 136.07 111.36 116.67 100.16 116.65 100.16 116.65 77.76"/><polyline class="cls-2" points="155.47 77.76 136.07 88.96 136.07 111.36 155.47 100.16 155.46 100.16 155.46 77.76"/><polygon class="cls-3" points="116.67 77.76 136.07 66.56 155.47 77.76 136.07 88.96 116.67 77.76"/><polyline class="cls-1" points="116.68 44.92 136.08 56.12 136.08 78.52 116.68 67.32 116.67 67.32 116.67 44.92"/><polyline class="cls-2" points="155.48 44.92 136.08 56.12 136.08 78.52 155.48 67.32 155.48 67.32 155.48 44.92"/><polygon class="cls-3" points="116.68 44.92 136.08 33.72 155.48 44.92 136.08 56.12 116.68 44.92"/><polyline class="cls-1" points="116.68 44.92 136.08 56.12 136.08 78.52 116.68 67.32 116.67 67.32 116.67 44.92"/><polyline class="cls-2" points="155.48 44.92 136.08 56.12 136.08 78.52 155.48 67.32 155.48 67.32 155.48 44.92"/><polygon class="cls-3" points="116.68 44.92 136.08 33.72 155.48 44.92 136.08 56.12 116.68 44.92"/><polyline class="cls-1" points="88.39 127.14 107.79 138.34 107.79 160.75 88.39 149.55 88.37 149.55 88.37 127.14"/><polyline class="cls-2" points="127.19 127.14 107.79 138.34 107.79 160.75 127.19 149.55 127.19 149.55 127.19 127.14"/><polygon class="cls-3" points="88.39 127.14 107.79 115.94 127.19 127.14 107.79 138.34 88.39 127.14"/><polyline class="cls-4" points="88.39 127.14 107.79 138.34 107.79 160.75 88.39 149.55 88.37 149.55 88.37 127.14"/><polyline class="cls-5" points="127.19 127.14 107.79 138.34 107.79 160.75 127.19 149.55 127.19 149.55 127.19 127.14"/><polygon class="cls-6" points="88.39 127.14 107.79 115.94 127.19 127.14 107.79 138.34 88.39 127.14"/><polyline class="cls-1" points="88.4 93.54 107.8 104.74 107.8 127.14 88.4 115.94 88.38 115.94 88.38 93.54"/><polyline class="cls-2" points="127.2 93.54 107.8 104.74 107.8 127.14 127.2 115.94 127.19 115.94 127.19 93.54"/><polygon class="cls-3" points="88.4 93.54 107.8 82.34 127.2 93.54 107.8 104.74 88.4 93.54"/><polyline class="cls-4" points="88.4 93.54 107.8 104.74 107.8 127.14 88.4 115.94 88.38 115.94 88.38 93.54"/><polyline class="cls-5" points="127.2 93.54 107.8 104.74 107.8 127.14 127.2 115.94 127.19 115.94 127.19 93.54"/><polygon class="cls-6" points="88.4 93.54 107.8 82.34 127.2 93.54 107.8 104.74 88.4 93.54"/><polyline class="cls-1" points="88.4 59.94 107.8 71.14 107.8 93.54 88.4 82.34 88.38 82.34 88.38 59.94"/><polyline class="cls-2" points="127.2 59.94 107.8 71.14 107.8 93.54 127.2 82.34 127.19 82.34 127.19 59.94"/><polygon class="cls-3" points="88.4 59.94 107.8 48.74 127.2 59.94 107.8 71.14 88.4 59.94"/><polyline class="cls-4" points="88.4 59.94 107.8 71.14 107.8 93.54 88.4 82.34 88.38 82.34 88.38 59.94"/><polyline class="cls-5" points="127.2 59.94 107.8 71.14 107.8 93.54 127.2 82.34 127.19 82.34 127.19 59.94"/><polygon class="cls-6" points="88.4 59.94 107.8 48.74 127.2 59.94 107.8 71.14 88.4 59.94"/><polyline class="cls-1" points="0.02 109.14 19.42 120.34 19.42 142.75 0.02 131.55 0 131.55 0 109.14"/><polyline class="cls-2" points="38.82 109.14 19.42 120.34 19.42 142.75 38.82 131.55 38.81 131.55 38.81 109.14"/><polygon class="cls-3" points="0.02 109.14 19.42 97.94 38.82 109.14 19.42 120.34 0.02 109.14"/><polyline class="cls-1" points="0.02 109.14 19.42 120.34 19.42 142.75 0.02 131.55 0 131.55 0 109.14"/><polyline class="cls-2" points="38.82 109.14 19.42 120.34 19.42 142.75 38.82 131.55 38.81 131.55 38.81 109.14"/><polygon class="cls-3" points="0.02 109.14 19.42 97.94 38.82 109.14 19.42 120.34 0.02 109.14"/><polyline class="cls-1" points="0.02 109.14 19.42 120.34 19.42 142.75 0.02 131.55 0 131.55 0 109.14"/><polyline class="cls-2" points="38.82 109.14 19.42 120.34 19.42 142.75 38.82 131.55 38.81 131.55 38.81 109.14"/><polygon class="cls-3" points="0.02 109.14 19.42 97.94 38.82 109.14 19.42 120.34 0.02 109.14"/><polyline class="cls-1" points="0.02 109.14 19.42 120.34 19.42 142.75 0.02 131.55 0 131.55 0 109.14"/><polyline class="cls-2" points="38.82 109.14 19.42 120.34 19.42 142.75 38.82 131.55 38.81 131.55 38.81 109.14"/><polygon class="cls-3" points="0.02 109.14 19.42 97.94 38.82 109.14 19.42 120.34 0.02 109.14"/><polyline class="cls-1" points="0.02 75.54 19.43 86.74 19.43 109.14 0.02 97.94 0.01 97.94 0.01 75.54"/><polyline class="cls-2" points="38.83 75.54 19.43 86.74 19.43 109.14 38.83 97.94 38.82 97.94 38.82 75.54"/><polygon class="cls-3" points="0.02 75.54 19.43 64.34 38.83 75.54 19.43 86.74 0.02 75.54"/><polyline class="cls-1" points="0.02 75.54 19.43 86.74 19.43 109.14 0.02 97.94 0.01 97.94 0.01 75.54"/><polyline class="cls-2" points="38.83 75.54 19.43 86.74 19.43 109.14 38.83 97.94 38.82 97.94 38.82 75.54"/><polygon class="cls-3" points="0.02 75.54 19.43 64.34 38.83 75.54 19.43 86.74 0.02 75.54"/><polyline class="cls-1" points="0.04 42.7 19.44 53.9 19.44 76.3 0.04 65.1 0.02 65.1 0.02 42.7"/><polyline class="cls-2" points="38.84 42.7 19.44 53.9 19.44 76.3 38.84 65.1 38.84 65.1 38.84 42.7"/><polygon class="cls-3" points="0.04 42.7 19.44 31.5 38.84 42.7 19.44 53.9 0.04 42.7"/><polyline class="cls-1" points="0.04 42.7 19.44 53.9 19.44 76.3 0.04 65.1 0.02 65.1 0.02 42.7"/><polyline class="cls-2" points="38.84 42.7 19.44 53.9 19.44 76.3 38.84 65.1 38.84 65.1 38.84 42.7"/><polygon class="cls-3" points="0.04 42.7 19.44 31.5 38.84 42.7 19.44 53.9 0.04 42.7"/><polyline class="cls-1" points="0.02 109.14 19.42 120.34 19.42 142.75 0.02 131.55 0 131.55 0 109.14"/><polyline class="cls-2" points="38.82 109.14 19.42 120.34 19.42 142.75 38.82 131.55 38.81 131.55 38.81 109.14"/><polygon class="cls-3" points="0.02 109.14 19.42 97.94 38.82 109.14 19.42 120.34 0.02 109.14"/><polyline class="cls-1" points="0.02 109.14 19.42 120.34 19.42 142.75 0.02 131.55 0 131.55 0 109.14"/><polyline class="cls-2" points="38.82 109.14 19.42 120.34 19.42 142.75 38.82 131.55 38.81 131.55 38.81 109.14"/><polygon class="cls-3" points="0.02 109.14 19.42 97.94 38.82 109.14 19.42 120.34 0.02 109.14"/><polyline class="cls-1" points="0.02 109.14 19.42 120.34 19.42 142.75 0.02 131.55 0 131.55 0 109.14"/><polyline class="cls-2" points="38.82 109.14 19.42 120.34 19.42 142.75 38.82 131.55 38.81 131.55 38.81 109.14"/><polygon class="cls-3" points="0.02 109.14 19.42 97.94 38.82 109.14 19.42 120.34 0.02 109.14"/><polyline class="cls-1" points="0.02 109.14 19.42 120.34 19.42 142.75 0.02 131.55 0 131.55 0 109.14"/><polyline class="cls-2" points="38.82 109.14 19.42 120.34 19.42 142.75 38.82 131.55 38.81 131.55 38.81 109.14"/><polygon class="cls-3" points="0.02 109.14 19.42 97.94 38.82 109.14 19.42 120.34 0.02 109.14"/><polyline class="cls-1" points="0.02 75.54 19.43 86.74 19.43 109.14 0.02 97.94 0.01 97.94 0.01 75.54"/><polyline class="cls-2" points="38.83 75.54 19.43 86.74 19.43 109.14 38.83 97.94 38.82 97.94 38.82 75.54"/><polygon class="cls-3" points="0.02 75.54 19.43 64.34 38.83 75.54 19.43 86.74 0.02 75.54"/><polyline class="cls-1" points="0.02 75.54 19.43 86.74 19.43 109.14 0.02 97.94 0.01 97.94 0.01 75.54"/><polyline class="cls-2" points="38.83 75.54 19.43 86.74 19.43 109.14 38.83 97.94 38.82 97.94 38.82 75.54"/><polygon class="cls-3" points="0.02 75.54 19.43 64.34 38.83 75.54 19.43 86.74 0.02 75.54"/><polyline class="cls-1" points="0.04 42.7 19.44 53.9 19.44 76.3 0.04 65.1 0.02 65.1 0.02 42.7"/><polyline class="cls-2" points="38.84 42.7 19.44 53.9 19.44 76.3 38.84 65.1 38.84 65.1 38.84 42.7"/><polygon class="cls-3" points="0.04 42.7 19.44 31.5 38.84 42.7 19.44 53.9 0.04 42.7"/><polyline class="cls-1" points="0.04 42.7 19.44 53.9 19.44 76.3 0.04 65.1 0.02 65.1 0.02 42.7"/><polyline class="cls-2" points="38.84 42.7 19.44 53.9 19.44 76.3 38.84 65.1 38.84 65.1 38.84 42.7"/><polygon class="cls-3" points="0.04 42.7 19.44 31.5 38.84 42.7 19.44 53.9 0.04 42.7"/><polyline class="cls-1" points="28.14 126.14 47.55 137.34 47.55 159.75 28.14 148.55 28.13 148.55 28.13 126.14"/><polyline class="cls-2" points="66.95 126.14 47.55 137.34 47.55 159.75 66.95 148.55 66.94 148.55 66.94 126.14"/><polygon class="cls-3" points="28.14 126.14 47.55 114.94 66.95 126.14 47.55 137.34 28.14 126.14"/><polyline class="cls-4" points="28.14 126.14 47.55 137.34 47.55 159.75 28.14 148.55 28.13 148.55 28.13 126.14"/><polyline class="cls-5" points="66.95 126.14 47.55 137.34 47.55 159.75 66.95 148.55 66.94 148.55 66.94 126.14"/><polygon class="cls-6" points="28.14 126.14 47.55 114.94 66.95 126.14 47.55 137.34 28.14 126.14"/><polyline class="cls-1" points="28.15 92.54 47.55 103.74 47.55 126.14 28.15 114.94 28.14 114.94 28.14 92.54"/><polyline class="cls-2" points="66.95 92.54 47.55 103.74 47.55 126.14 66.95 114.94 66.95 114.94 66.95 92.54"/><polygon class="cls-3" points="28.15 92.54 47.55 81.34 66.95 92.54 47.55 103.74 28.15 92.54"/><polyline class="cls-4" points="28.15 92.54 47.55 103.74 47.55 126.14 28.15 114.94 28.14 114.94 28.14 92.54"/><polyline class="cls-5" points="66.95 92.54 47.55 103.74 47.55 126.14 66.95 114.94 66.95 114.94 66.95 92.54"/><polygon class="cls-6" points="28.15 92.54 47.55 81.34 66.95 92.54 47.55 103.74 28.15 92.54"/><polyline class="cls-1" points="28.15 58.94 47.55 70.14 47.55 92.54 28.15 81.34 28.14 81.34 28.14 58.94"/><polyline class="cls-2" points="66.95 58.94 47.55 70.14 47.55 92.54 66.95 81.34 66.95 81.34 66.95 58.94"/><polygon class="cls-3" points="28.15 58.94 47.55 47.74 66.95 58.94 47.55 70.14 28.15 58.94"/><polyline class="cls-4" points="28.15 58.94 47.55 70.14 47.55 92.54 28.15 81.34 28.14 81.34 28.14 58.94"/><polyline class="cls-5" points="66.95 58.94 47.55 70.14 47.55 92.54 66.95 81.34 66.95 81.34 66.95 58.94"/><polygon class="cls-6" points="28.15 58.94 47.55 47.74 66.95 58.94 47.55 70.14 28.15 58.94"/><polyline class="cls-1" points="57.24 143.95 76.64 155.15 76.64 177.55 57.24 166.35 57.22 166.35 57.22 143.95"/><polyline class="cls-2" points="96.04 143.95 76.64 155.15 76.64 177.55 96.04 166.35 96.04 166.35 96.04 143.95"/><polygon class="cls-3" points="57.24 143.95 76.64 132.75 96.04 143.95 76.64 155.15 57.24 143.95"/><polyline class="cls-1" points="57.24 143.95 76.64 155.15 76.64 177.55 57.24 166.35 57.22 166.35 57.22 143.95"/><polyline class="cls-2" points="96.04 143.95 76.64 155.15 76.64 177.55 96.04 166.35 96.04 166.35 96.04 143.95"/><polygon class="cls-3" points="57.24 143.95 76.64 132.75 96.04 143.95 76.64 155.15 57.24 143.95"/><polyline class="cls-1" points="57.24 143.95 76.64 155.15 76.64 177.55 57.24 166.35 57.22 166.35 57.22 143.95"/><polyline class="cls-2" points="96.04 143.95 76.64 155.15 76.64 177.55 96.04 166.35 96.04 166.35 96.04 143.95"/><polygon class="cls-3" points="57.24 143.95 76.64 132.75 96.04 143.95 76.64 155.15 57.24 143.95"/><polyline class="cls-1" points="57.24 143.95 76.64 155.15 76.64 177.55 57.24 166.35 57.22 166.35 57.22 143.95"/><polyline class="cls-2" points="96.04 143.95 76.64 155.15 76.64 177.55 96.04 166.35 96.04 166.35 96.04 143.95"/><polygon class="cls-3" points="57.24 143.95 76.64 132.75 96.04 143.95 76.64 155.15 57.24 143.95"/><polyline class="cls-1" points="57.25 110.34 76.65 121.54 76.65 143.95 57.25 132.75 57.23 132.75 57.23 110.34"/><polyline class="cls-2" points="96.05 110.34 76.65 121.54 76.65 143.95 96.05 132.75 96.04 132.75 96.04 110.34"/><polygon class="cls-3" points="57.25 110.34 76.65 99.14 96.05 110.34 76.65 121.54 57.25 110.34"/><polyline class="cls-1" points="57.25 110.34 76.65 121.54 76.65 143.95 57.25 132.75 57.23 132.75 57.23 110.34"/><polyline class="cls-2" points="96.05 110.34 76.65 121.54 76.65 143.95 96.05 132.75 96.04 132.75 96.04 110.34"/><polygon class="cls-3" points="57.25 110.34 76.65 99.14 96.05 110.34 76.65 121.54 57.25 110.34"/><polyline class="cls-1" points="57.26 77.5 76.66 88.7 76.66 111.1 57.26 99.9 57.25 99.9 57.25 77.5"/><polyline class="cls-2" points="96.06 77.5 76.66 88.7 76.66 111.1 96.06 99.9 96.06 99.9 96.06 77.5"/><polygon class="cls-3" points="57.26 77.5 76.66 66.3 96.06 77.5 76.66 88.7 57.26 77.5"/><polyline class="cls-1" points="57.26 77.5 76.66 88.7 76.66 111.1 57.26 99.9 57.25 99.9 57.25 77.5"/><polyline class="cls-2" points="96.06 77.5 76.66 88.7 76.66 111.1 96.06 99.9 96.06 99.9 96.06 77.5"/><polygon class="cls-3" points="57.26 77.5 76.66 66.3 96.06 77.5 76.66 88.7 57.26 77.5"/><polyline class="cls-1" points="57.24 143.95 76.64 155.15 76.64 177.55 57.24 166.35 57.22 166.35 57.22 143.95"/><polyline class="cls-2" points="96.04 143.95 76.64 155.15 76.64 177.55 96.04 166.35 96.04 166.35 96.04 143.95"/><polygon class="cls-3" points="57.24 143.95 76.64 132.75 96.04 143.95 76.64 155.15 57.24 143.95"/><polyline class="cls-1" points="57.24 143.95 76.64 155.15 76.64 177.55 57.24 166.35 57.22 166.35 57.22 143.95"/><polyline class="cls-2" points="96.04 143.95 76.64 155.15 76.64 177.55 96.04 166.35 96.04 166.35 96.04 143.95"/><polygon class="cls-3" points="57.24 143.95 76.64 132.75 96.04 143.95 76.64 155.15 57.24 143.95"/><polyline class="cls-1" points="57.24 143.95 76.64 155.15 76.64 177.55 57.24 166.35 57.22 166.35 57.22 143.95"/><polyline class="cls-2" points="96.04 143.95 76.64 155.15 76.64 177.55 96.04 166.35 96.04 166.35 96.04 143.95"/><polygon class="cls-3" points="57.24 143.95 76.64 132.75 96.04 143.95 76.64 155.15 57.24 143.95"/><polyline class="cls-1" points="57.24 143.95 76.64 155.15 76.64 177.55 57.24 166.35 57.22 166.35 57.22 143.95"/><polyline class="cls-2" points="96.04 143.95 76.64 155.15 76.64 177.55 96.04 166.35 96.04 166.35 96.04 143.95"/><polygon class="cls-3" points="57.24 143.95 76.64 132.75 96.04 143.95 76.64 155.15 57.24 143.95"/><polyline class="cls-1" points="57.25 110.34 76.65 121.54 76.65 143.95 57.25 132.75 57.23 132.75 57.23 110.34"/><polyline class="cls-2" points="96.05 110.34 76.65 121.54 76.65 143.95 96.05 132.75 96.04 132.75 96.04 110.34"/><polygon class="cls-3" points="57.25 110.34 76.65 99.14 96.05 110.34 76.65 121.54 57.25 110.34"/><polyline class="cls-1" points="57.25 110.34 76.65 121.54 76.65 143.95 57.25 132.75 57.23 132.75 57.23 110.34"/><polyline class="cls-2" points="96.05 110.34 76.65 121.54 76.65 143.95 96.05 132.75 96.04 132.75 96.04 110.34"/><polygon class="cls-3" points="57.25 110.34 76.65 99.14 96.05 110.34 76.65 121.54 57.25 110.34"/><polyline class="cls-1" points="57.26 77.5 76.66 88.7 76.66 111.1 57.26 99.9 57.25 99.9 57.25 77.5"/><polyline class="cls-2" points="96.06 77.5 76.66 88.7 76.66 111.1 96.06 99.9 96.06 99.9 96.06 77.5"/><polygon class="cls-3" points="57.26 77.5 76.66 66.3 96.06 77.5 76.66 88.7 57.26 77.5"/><polyline class="cls-1" points="57.26 77.5 76.66 88.7 76.66 111.1 57.26 99.9 57.25 99.9 57.25 77.5"/><polyline class="cls-2" points="96.06 77.5 76.66 88.7 76.66 111.1 96.06 99.9 96.06 99.9 96.06 77.5"/><polygon class="cls-3" points="57.26 77.5 76.66 66.3 96.06 77.5 76.66 88.7 57.26 77.5"/></g></g></svg>